<?xml version="1.0" encoding="UTF-8"?>
<!-- Generated by Pixelmator Pro 3.2.3 -->
<svg width="500" height="500" viewBox="0 0 500 500" xmlns="http://www.w3.org/2000/svg" xmlns:xlink="http://www.w3.org/1999/xlink">
    <g id="g1">
        <path id="path1" fill="#005bc3" stroke="none" d="M 251.499557 462.299316 C 220.124527 460.321655 192.597885 452.999023 165.445389 439.42276 C 143.744766 428.519043 128.137436 417.508362 111.514542 401.206177 C 102.053932 391.905914 97.136543 386.293701 89.760475 376.458923 C 79.12397 362.348206 70.785797 347.596008 63.944225 330.652405 C 58.599243 317.55722 54.430161 302.270599 51.864571 286.50293 C 50.986923 281.203888 50.384544 279.305359 49.324635 271.632629 C 49.324635 271.632629 48.356125 260.023346 48.356125 248.820801 C 48.356125 243.472595 49.373276 227.063538 49.994362 222.458282 C 50.606361 217.922546 51.041443 215.918701 51.757671 211.94043 C 55.873306 189.758789 62.50108 169.447845 71.854797 150.473175 C 83.346504 127.222504 97.136543 108.247833 115.523277 90.342163 C 131.344421 74.895172 147.432816 63.563812 167.583374 53.515228 C 198.42392 38.17514 234.074921 29.249023 267.962097 28.500732 C 280.095215 28.23349 280.362457 28.23349 280.362457 29.30249 C 280.362457 30.585266 278.277924 31.493927 267.106903 35.395752 C 258.448029 38.388947 252.408218 41.168335 244.123505 46.13916 C 216.16925 62.868958 190.192642 94.564697 177.043991 128.024261 C 169.133423 148.121399 165.285034 165.920166 164.269501 186.819031 C 163.040146 212.688721 165.391937 233.534149 171.752472 253.898529 C 183.832123 292.489288 205.212036 323.222931 236.373276 346.687378 C 257.379028 362.508545 275.070923 370.632904 303.880371 377.634827 C 312.218536 379.665894 331.834595 381.269409 342.364227 380.841797 C 368.928772 379.772797 397.096832 370.579437 418.850861 355.98764 C 428.36496 349.573669 432.052979 346.527039 440.284241 338.295776 C 448.355164 330.171387 452.417358 325.254028 457.815796 317.236542 C 461.129669 312.21225 469.093689 298.582581 469.895416 296.551453 C 470.055786 296.016968 470.697174 295.589355 471.285126 295.589355 C 472.300659 295.589355 472.354126 295.856628 472.086884 298.154968 C 470.857544 308.203491 460.80896 336.799133 454.020874 349.41333 C 445.896484 364.432709 437.879028 376.458923 428.739075 387.255768 C 423.233765 393.776672 411.100647 406.016632 405.70224 410.559875 C 376.946259 434.665771 343.540131 450.433441 304.414856 458.290558 C 294.366302 460.321655 287.471283 461.176849 275.498505 462.08548 C 263.79303 462.940674 261.761932 462.940674 251.499557 462.299316 Z"/>
    </g>
    <g id="g2">
        <path id="path2" fill="#005bc3" stroke="none" d="M 321.411896 381.803894 C 319.648041 381.376282 320.342896 380.040039 322.320557 380.040039 C 323.817139 380.040039 324.191284 380.253876 324.191284 381.109039 C 324.191284 382.17804 323.442993 382.338379 321.411896 381.803894 Z"/>
        <path id="path3" fill="#005bc3" stroke="none" d="M 351.450684 381.162476 C 351.450684 380.467651 351.771362 380.040039 352.412781 380.040039 C 352.893829 380.040039 354.604248 379.8797 356.154266 379.71936 C 358.452606 379.398651 358.933655 379.505554 358.933655 380.200378 C 358.933655 381.002136 358.292267 381.269409 353.749023 381.910797 C 351.66449 382.231476 351.450684 382.17804 351.450684 381.162476 Z"/>
        <path id="path4" fill="#005bc3" stroke="none" d="M 316.066925 381.269409 C 314.30307 380.841797 314.997925 379.505554 316.975555 379.505554 C 318.472168 379.505554 318.846313 379.71936 318.846313 380.574554 C 318.846313 381.643555 318.098022 381.803894 316.066925 381.269409 Z"/>
        <path id="path5" fill="#005bc3" stroke="none" d="M 303.773468 379.665894 C 302.009613 379.238312 302.704468 377.902069 304.682098 377.902069 C 306.178711 377.902069 306.552856 378.115875 306.552856 378.971069 C 306.552856 380.040039 305.804565 380.200378 303.773468 379.665894 Z"/>
        <path id="path6" fill="#005bc3" stroke="none" d="M 364.278625 378.971069 C 364.278625 378.115875 364.652802 377.902069 366.149384 377.902069 C 368.287384 377.902069 368.768433 379.184875 366.844208 379.71936 C 364.813141 380.253876 364.278625 380.093506 364.278625 378.971069 Z"/>
        <path id="path7" fill="#005bc3" stroke="none" d="M 298.962982 378.383118 C 297.412933 377.527893 297.840546 376.833069 299.871643 376.833069 C 301.368225 376.833069 301.742371 377.046875 301.742371 377.902069 C 301.742371 379.077972 300.459595 379.291748 298.962982 378.383118 Z"/>
        <path id="path8" fill="#005bc3" stroke="none" d="M 369.089111 377.955505 C 369.089111 376.939972 370.906433 376.298584 373.685791 376.298584 C 375.877258 376.298584 375.128937 377.74173 372.616791 378.383118 C 369.40979 379.184875 369.089111 379.131409 369.089111 377.955505 Z"/>
        <path id="path9" fill="#005bc3" stroke="none" d="M 375.503082 376.458923 C 375.503082 375.710632 376.144501 375.28302 377.908325 374.801971 C 379.244568 374.427826 380.90152 374.160583 381.649811 374.160583 C 382.398132 374.160583 382.986053 373.946777 382.986053 373.626068 C 382.986053 373.358826 383.574005 373.091583 384.322296 373.091583 C 385.070618 373.091583 385.658569 372.877777 385.658569 372.664001 C 385.658569 372.076019 389.346619 370.953583 391.217346 370.953583 C 392.660461 370.953583 393.088104 371.648438 392.019104 372.343262 C 391.056976 372.931244 379.404938 376.779633 377.37384 377.153748 C 375.770355 377.42099 375.503082 377.367554 375.503082 376.458923 Z"/>
        <path id="path10" fill="#005bc3" stroke="none" d="M 289.34201 375.924408 C 287.578186 375.496826 288.27301 374.160583 290.250671 374.160583 C 291.747253 374.160583 292.121399 374.37439 292.121399 375.229553 C 292.121399 376.298584 291.373108 376.458923 289.34201 375.924408 Z"/>
        <path id="path11" fill="#005bc3" stroke="none" d="M 277.850311 372.022583 C 275.12439 370.793243 274.910583 369.884583 277.315796 369.884583 C 279.560699 369.884583 280.522797 370.526001 280.255554 371.91568 C 280.095215 373.038147 280.095215 373.038147 277.850311 372.022583 Z"/>
        <path id="path12" fill="#005bc3" stroke="none" d="M 269.672485 368.869019 C 263.79303 366.570679 256.844543 363.04303 256.844543 362.348206 C 256.844543 361.81369 259.517029 361.706787 260.799835 362.187805 C 261.280884 362.348206 261.655029 362.829224 261.655029 363.256805 C 261.655029 363.737854 262.242981 364.005127 263.258514 364.005127 C 264.327515 364.005127 264.862 364.272369 264.862 364.806854 C 264.862 365.34137 265.396515 365.608612 266.465515 365.608612 C 267.374146 365.608612 268.069 365.822418 268.069 366.089661 C 268.069 366.356934 269.031097 366.677612 270.207001 366.891418 C 271.382904 367.051758 272.344971 367.47937 272.344971 367.746582 C 272.344971 368.067291 272.932922 368.281097 273.681244 368.281097 C 274.750214 368.281097 275.017487 368.54834 275.017487 369.61734 C 275.017487 370.365662 274.96402 370.953583 274.910583 370.900146 C 274.80368 370.900146 272.451904 369.991516 269.672485 368.869019 Z"/>
        <path id="path13" fill="#005bc3" stroke="none" d="M 412.383453 361.065369 C 412.383453 359.889465 412.59726 359.729126 414.254211 359.729126 C 416.552521 359.729126 416.605988 360.263611 414.57489 361.492981 C 412.543793 362.668884 412.383453 362.668884 412.383453 361.065369 Z"/>
        <path id="path14" fill="#005bc3" stroke="none" d="M 249.040863 358.232544 C 243.375183 354.758301 232.79213 347.168427 232.79213 346.633911 C 232.79213 346.473572 233.647339 346.366699 234.662872 346.366699 C 235.945663 346.366699 236.533615 346.633911 236.533615 347.168427 C 236.533615 347.596008 237.014664 347.970154 237.602615 347.970154 C 238.190567 347.970154 238.671616 348.34433 238.671616 348.771912 C 238.671616 349.199524 239.152664 349.573669 239.740616 349.573669 C 240.542358 349.573669 240.809601 349.947815 240.809601 350.909912 C 240.809601 352.085815 241.023407 352.246155 242.680344 352.246155 C 243.695892 352.246155 244.551086 352.513428 244.551086 352.78064 C 244.551086 353.101349 244.925247 353.315155 245.352844 353.315155 C 245.780426 353.315155 246.154587 353.582397 246.154587 353.84967 C 246.154587 354.170349 246.528732 354.384155 246.956329 354.384155 C 247.383926 354.384155 247.758072 354.758301 247.758072 355.185913 C 247.758072 355.666962 248.23912 355.98764 249.09433 355.98764 C 249.949524 355.98764 250.430573 356.30835 250.430573 356.789398 C 250.430573 357.270447 250.911606 357.591125 251.713364 357.591125 C 252.461655 357.591125 253.3703 357.965271 253.851349 358.392883 C 254.278961 358.820496 254.866898 359.194641 255.187592 359.194641 C 255.508301 359.194641 255.775543 359.782562 255.775543 360.530884 C 255.775543 361.279175 255.615204 361.867126 255.401398 361.867126 C 255.13414 361.867126 252.301315 360.210205 249.040863 358.232544 Z"/>
        <path id="path15" fill="#005bc3" stroke="none" d="M 416.659424 358.392883 C 416.659424 357.21698 416.87326 357.056641 418.690521 357.056641 C 420.668182 357.110077 420.668182 357.110077 419.1716 358.392883 C 417.247375 360.103271 416.659424 360.049805 416.659424 358.392883 Z"/>
        <path id="path16" fill="#005bc3" stroke="none" d="M 422.004425 354.91864 C 422.004425 353.422058 422.164764 353.315155 423.875153 353.315155 C 426.226959 353.315155 426.226959 353.796204 423.875153 355.346252 C 422.004425 356.522156 422.004425 356.522156 422.004425 354.91864 Z"/>
        <path id="path17" fill="#005bc3" stroke="none" d="M 430.021881 349.09259 C 430.021881 347.542603 430.18222 347.435669 431.946075 347.435669 C 434.030609 347.435669 433.977173 347.916748 431.625397 349.573669 C 430.021881 350.696106 430.021881 350.696106 430.021881 349.09259 Z"/>
        <path id="path18" fill="#005bc3" stroke="none" d="M 434.832367 344.81662 C 434.832367 343.266602 434.992706 343.159698 436.756561 343.159698 C 438.841095 343.159698 438.787659 343.640747 436.435852 345.297668 C 434.832367 346.420105 434.832367 346.420105 434.832367 344.81662 Z"/>
        <path id="path19" fill="#005bc3" stroke="none" d="M 228.783401 343.801086 C 226.110916 341.823425 226.110916 341.823425 227.981659 341.663086 C 228.997192 341.556213 229.905853 341.716553 230.012741 342.037262 C 230.119644 342.357941 230.547241 342.625183 230.974838 342.625183 C 231.455887 342.625183 231.723145 343.213135 231.723145 344.228699 C 231.723145 345.137329 231.669693 345.832184 231.616226 345.832184 C 231.509338 345.832184 230.279984 344.923523 228.783401 343.801086 Z"/>
        <path id="path20" fill="#005bc3" stroke="none" d="M 223.705673 339.418213 C 221.83493 337.868164 221.83493 337.868164 223.866013 337.814697 C 225.736755 337.814697 225.843658 337.921631 225.843658 339.418213 C 225.843658 340.326843 225.790207 341.021698 225.683319 341.021698 C 225.629868 341.021698 224.721207 340.326843 223.705673 339.418213 Z"/>
        <path id="path21" fill="#005bc3" stroke="none" d="M 443.918823 335.997406 C 443.918823 334.233582 444.025726 334.073242 445.575775 334.073242 C 447.17926 334.073242 447.17926 334.073242 446.056824 335.676727 C 444.399902 338.028503 443.918823 338.08197 443.918823 335.997406 Z"/>
        <path id="path22" fill="#005bc3" stroke="none" d="M 216.222702 332.469727 C 215.10025 330.866241 215.10025 330.866241 216.703735 330.866241 C 218.200348 330.866241 218.360687 331.026581 218.360687 332.469727 C 218.360687 333.378387 218.146896 334.073242 217.879639 334.073242 C 217.612396 334.073242 216.864105 333.378387 216.222702 332.469727 Z"/>
        <path id="path23" fill="#005bc3" stroke="none" d="M 326.062042 326.804077 C 308.79776 324.398834 297.092224 321.298706 285.172943 316.060638 C 278.705505 313.227814 271.810486 309.486328 271.810486 308.84491 C 271.810486 308.310425 278.545166 308.310425 299.871643 308.898376 C 319.380798 309.432861 349.900635 308.84491 361.60614 307.669006 C 382.505005 305.531006 399.662415 301.843018 415.002502 296.177307 C 417.514618 295.268677 419.866425 294.520386 420.24057 294.520386 C 420.775085 294.520386 420.935425 295.696289 420.935425 299.063599 C 420.935425 303.606842 420.935425 303.606842 418.209503 305.744812 C 410.886871 311.517395 396.188171 317.87793 381.115326 321.726318 C 364.866577 325.895416 358.506073 326.697144 341.562469 326.857483 C 333.919159 326.964417 326.970673 326.91095 326.062042 326.804077 Z"/>
        <path id="path24" fill="#005bc3" stroke="none" d="M 454.608795 323.169434 C 454.608795 321.40564 454.715698 321.24527 456.265717 321.24527 C 457.869232 321.24527 457.869232 321.24527 456.746796 322.848755 C 455.089844 325.200562 454.608795 325.254028 454.608795 323.169434 Z"/>
        <path id="path25" fill="#005bc3" stroke="none" d="M 203.875793 319.000366 C 202.913696 317.71759 201.898163 316.381348 201.630905 316.060638 C 201.25676 315.526123 201.524002 315.365784 202.806793 315.365784 C 204.089584 315.365784 204.463745 315.57959 204.463745 316.434814 C 204.463745 317.022736 204.837891 317.503784 205.265488 317.503784 C 205.799988 317.503784 206.06723 318.091736 206.06723 319.374512 C 206.06723 320.390076 205.960327 321.24527 205.853439 321.24527 C 205.746536 321.24527 204.837891 320.229736 203.875793 319.000366 Z"/>
        <path id="path26" fill="#005bc3" stroke="none" d="M 461.022766 313.495056 C 461.022766 311.998474 461.236572 311.624329 462.091766 311.624329 C 462.94696 311.624329 463.160767 311.250153 463.160767 309.753571 C 463.160767 308.096619 463.321106 307.882813 464.497009 307.882813 C 465.245331 307.882813 465.833252 307.989746 465.833252 308.150085 C 465.833252 308.791473 461.824524 315.365784 461.450348 315.365784 C 461.236572 315.365784 461.022766 314.51062 461.022766 313.495056 Z"/>
        <path id="path27" fill="#005bc3" stroke="none" d="M 198.156677 311.517395 C 194.468628 306.54657 188.428802 297.567017 188.428802 297.085968 C 188.428802 296.872162 189.016754 296.658386 189.765045 296.658386 C 190.620255 296.658386 191.101288 296.979065 191.101288 297.460114 C 191.101288 297.887695 191.368546 298.261841 191.635788 298.261841 C 191.956497 298.261841 192.170288 298.636017 192.170288 299.063599 C 192.170288 299.491211 192.437531 299.865356 192.704788 299.865356 C 193.025482 299.865356 193.239288 300.239502 193.239288 300.667114 C 193.239288 301.094696 193.506531 301.468872 193.773788 301.468872 C 194.094482 301.468872 194.308273 301.843018 194.308273 302.270599 C 194.308273 302.698181 194.575531 303.072327 194.842773 303.072327 C 195.163483 303.072327 195.377274 303.553406 195.377274 304.141357 C 195.377274 304.729279 195.751434 305.210327 196.179016 305.210327 C 196.606613 305.210327 196.980774 305.584473 196.980774 306.012085 C 196.980774 306.439697 197.248016 306.813843 197.515274 306.813843 C 197.835968 306.813843 198.049759 307.669006 198.049759 308.68457 C 198.049759 310.341492 198.210114 310.555298 199.386017 310.555298 C 200.56192 310.555298 200.72226 310.769135 200.72226 312.426056 C 200.72226 313.44162 200.615356 314.296814 200.455002 314.296814 C 200.348099 314.296814 199.279099 313.013977 198.156677 311.517395 Z"/>
        <path id="path28" fill="#005bc3" stroke="none" d="M 465.833252 304.943085 C 465.833252 303.660278 466.100494 303.072327 466.63501 303.072327 C 467.116058 303.072327 467.436737 302.591278 467.436737 301.736084 C 467.436737 300.88092 467.757446 300.399841 468.238495 300.399841 C 468.719543 300.399841 469.040253 299.918823 469.040253 299.117065 C 469.040253 296.979065 469.628174 296.123871 470.964417 296.123871 C 471.659302 296.123871 472.247223 296.230774 472.247223 296.391113 C 472.247223 297.406677 466.795349 306.813843 466.260834 306.813843 C 466.047058 306.813843 465.833252 305.958649 465.833252 304.943085 Z"/>
        <path id="path29" fill="#005bc3" stroke="none" d="M 184.79422 290.832336 C 183.351074 288.266724 183.351074 288.106384 184.901108 288.106384 C 186.290817 288.106384 186.825302 288.961609 186.825302 291.366821 C 186.825302 293.504822 186.183899 293.291016 184.79422 290.832336 Z"/>
        <path id="path30" fill="#005bc3" stroke="none" d="M 182.282074 285.968414 C 181.213074 283.937317 181.266541 283.830414 182.816574 283.830414 C 183.992462 283.830414 184.152817 284.04422 184.152817 285.701172 C 184.152817 287.999512 183.404526 288.106384 182.282074 285.968414 Z"/>
        <path id="path31" fill="#005bc3" stroke="none" d="M 171.111069 259.136597 C 170.576569 257.10553 170.736923 256.571014 171.85936 256.571014 C 172.714569 256.571014 172.92836 256.94519 172.92836 258.441772 C 172.92836 260.579773 171.645569 261.060791 171.111069 259.136597 Z"/>
        <path id="path32" fill="#005bc3" stroke="none" d="M 168.652374 250.744995 C 167.79718 249.088043 168.010986 248.019058 169.186874 248.019058 C 170.042068 248.019058 170.255875 248.393204 170.255875 249.889801 C 170.255875 251.974335 169.507584 252.348495 168.652374 250.744995 Z"/>
        <path id="path33" fill="#005bc3" stroke="none" d="M 167.369583 246.308655 C 166.835083 244.277573 166.995438 243.743073 168.117874 243.743073 C 168.973083 243.743073 169.186874 244.117218 169.186874 245.613815 C 169.186874 247.751801 167.904083 248.232849 167.369583 246.308655 Z"/>
        <path id="path34" fill="#005bc3" stroke="none" d="M 164.162598 229.204712 C 163.628098 227.173645 163.788437 226.63913 164.910889 226.63913 C 165.766098 226.63913 165.979889 227.013275 165.979889 228.509888 C 165.979889 230.647858 164.697098 231.128906 164.162598 229.204712 Z"/>
        <path id="path35" fill="#005bc3" stroke="none" d="M 163.628098 224.394226 C 163.093597 222.363159 163.253952 221.828644 164.376389 221.828644 C 165.231598 221.828644 165.445389 222.20282 165.445389 223.699402 C 165.445389 225.837402 164.162598 226.31842 163.628098 224.394226 Z"/>
        <path id="path36" fill="#005bc3" stroke="none" d="M 163.093597 219.58374 C 162.559097 217.552673 162.719452 217.018158 163.841888 217.018158 C 164.697098 217.018158 164.910889 217.392334 164.910889 218.888916 C 164.910889 221.026917 163.628098 221.507965 163.093597 219.58374 Z"/>
        <path id="path37" fill="#005bc3" stroke="none" d="M 162.559097 211.566284 C 162.398758 210.871429 162.238403 209.535187 162.238403 208.626556 C 162.238403 207.236877 162.452194 206.862701 163.307404 206.862701 C 164.269501 206.862701 164.376389 207.236877 164.376389 209.80246 C 164.376389 211.94043 164.162598 212.742188 163.628098 212.742188 C 163.253952 212.742188 162.772903 212.207703 162.559097 211.566284 Z"/>
        <path id="path38" fill="#005bc3" stroke="none" d="M 162.238403 192.858856 C 162.238403 190.293274 162.772903 188.689789 163.628098 188.689789 C 164.162598 188.689789 164.376389 189.491516 164.376389 191.629517 C 164.376389 194.195099 164.269501 194.569244 163.307404 194.569244 C 162.452194 194.569244 162.238403 194.195099 162.238403 192.858856 Z"/>
        <path id="path39" fill="#005bc3" stroke="none" d="M 162.772903 178.961914 C 162.772903 176.87738 163.414291 175.327332 164.162598 175.327332 C 164.697098 175.327332 164.910889 176.022156 164.910889 177.732574 C 164.910889 179.763641 164.750534 180.137817 163.841888 180.137817 C 163.093597 180.137817 162.772903 179.763641 162.772903 178.961914 Z"/>
        <path id="path40" fill="#005bc3" stroke="none" d="M 164.910889 163.461487 C 164.910889 161.857971 165.605743 160.361389 166.300583 160.361389 C 166.781631 160.361389 167.048889 161.002777 167.048889 162.232117 C 167.048889 163.728729 166.835083 164.102875 165.979889 164.102875 C 165.391937 164.102875 164.910889 163.782166 164.910889 163.461487 Z"/>
        <path id="path41" fill="#005bc3" stroke="none" d="M 168.652374 146.892029 C 168.652374 145.288544 169.347229 143.791962 170.042068 143.791962 C 170.523117 143.791962 170.790375 144.43335 170.790375 145.662689 C 170.790375 147.159302 170.576569 147.533447 169.721375 147.533447 C 169.133423 147.533447 168.652374 147.212738 168.652374 146.892029 Z"/>
        <path id="path42" fill="#005bc3" stroke="none" d="M 170.309326 141.279816 C 170.362762 140.7453 171.111069 138.179718 172.073166 135.560669 C 173.890457 130.376038 175.06636 129.039795 175.06636 132.246796 C 175.06636 133.315796 174.852554 134.17099 174.585312 134.17099 C 174.371506 134.17099 173.99736 135.186523 173.837006 136.415863 C 173.676651 137.698669 173.249069 138.76767 172.981812 138.874573 C 172.661118 138.981476 172.39386 139.783203 172.39386 140.638428 C 172.39386 141.814301 172.126617 142.188446 171.324875 142.188446 C 170.63002 142.188446 170.255875 141.867737 170.309326 141.279816 Z"/>
        <path id="path43" fill="#005bc3" stroke="none" d="M 176.616394 123.374115 C 179.12854 116.960144 180.411331 115.463562 180.411331 118.937805 C 180.411331 120.220581 180.144089 120.808533 179.609589 120.808533 C 179.075089 120.808533 178.807846 121.396484 178.807846 122.679291 C 178.807846 124.336212 178.647491 124.550018 177.471588 124.550018 C 176.349152 124.550018 176.242249 124.389679 176.616394 123.374115 Z"/>
        <path id="path44" fill="#005bc3" stroke="none" d="M 183.083817 109.851318 C 183.083817 109.20993 187.09256 102.63559 187.466705 102.63559 C 187.680511 102.63559 187.894302 103.490814 187.894302 104.506348 C 187.894302 106.00293 187.680511 106.377075 186.825302 106.377075 C 185.970108 106.377075 185.756317 106.751251 185.756317 108.247833 C 185.756317 109.904785 185.595963 110.118561 184.420074 110.118561 C 183.671768 110.118561 183.083817 110.011688 183.083817 109.851318 Z"/>
        <path id="path45" fill="#005bc3" stroke="none" d="M 195.430725 89.540405 C 198.103226 85.852356 198.584259 85.585114 198.584259 87.883453 C 198.584259 89.219696 198.370468 89.807648 197.782516 89.807648 C 197.354919 89.807648 196.980774 90.288696 196.980774 90.876648 C 196.980774 91.731842 196.606613 91.945648 195.323822 91.945648 C 193.720337 91.945648 193.720337 91.945648 195.430725 89.540405 Z"/>
        <path id="path46" fill="#005bc3" stroke="none" d="M 199.653259 83.928162 C 201.310211 81.576385 201.79126 81.522919 201.79126 83.607483 C 201.79126 85.371307 201.684341 85.531677 200.134308 85.531677 C 198.530807 85.531677 198.530807 85.531677 199.653259 83.928162 Z"/>
        <path id="path47" fill="#005bc3" stroke="none" d="M 206.60173 75.376221 C 208.258682 73.024414 208.739731 72.970978 208.739731 75.055511 C 208.739731 76.819336 208.632813 76.979706 207.082779 76.979706 C 205.479279 76.979706 205.479279 76.979706 206.60173 75.376221 Z"/>
        <path id="path48" fill="#005bc3" stroke="none" d="M 211.946716 69.496735 C 213.603668 67.144928 214.084702 67.091492 214.084702 69.176025 C 214.084702 70.93988 213.977798 71.10022 212.427765 71.10022 C 210.824265 71.10022 210.824265 71.10022 211.946716 69.496735 Z"/>
        <path id="path49" fill="#005bc3" stroke="none" d="M 219.964188 61.425812 C 221.30043 60.303375 223.010834 58.806763 223.866013 58.218811 C 225.309158 57.149841 225.309158 57.149841 225.309158 58.753326 C 225.309158 60.303375 225.148819 60.410278 223.438416 60.410278 C 221.728027 60.410278 221.567673 60.517151 221.567673 62.013763 C 221.567673 63.510345 221.46077 63.617249 219.590027 63.617249 C 217.558945 63.563812 217.558945 63.563812 219.964188 61.425812 Z"/>
        <path id="path50" fill="#005bc3" stroke="none" d="M 227.447159 55.385986 C 227.447159 54.744598 239.52681 45.978821 240.382019 45.978821 C 240.649261 45.978821 240.809601 46.566772 240.809601 47.315063 C 240.809601 48.170258 240.488907 48.651306 240.007858 48.651306 C 239.580261 48.651306 239.206116 48.918549 239.206116 49.185791 C 239.206116 49.5065 238.831955 49.720306 238.404358 49.720306 C 237.976776 49.720306 237.602615 49.987549 237.602615 50.254791 C 237.602615 50.5755 237.228455 50.789307 236.800873 50.789307 C 236.373276 50.789307 235.999115 51.056549 235.999115 51.323792 C 235.999115 51.644501 235.411179 51.858307 234.662872 51.858307 C 233.70079 51.858307 233.32663 52.125549 233.32663 52.927307 C 233.32663 53.622131 232.952484 53.996277 232.257629 53.996277 C 231.669693 53.996277 231.188644 54.370422 231.188644 54.798035 C 231.188644 55.33252 230.600693 55.599792 229.317902 55.599792 C 228.302353 55.599792 227.447159 55.492889 227.447159 55.385986 Z"/>
        <path id="path51" fill="#005bc3" stroke="none" d="M 241.344101 45.551208 C 241.344101 45.177063 247.918427 41.168335 248.55983 41.168335 C 248.720169 41.168335 248.827072 41.756287 248.827072 42.504578 C 248.827072 43.573578 248.55983 43.84082 247.490829 43.84082 C 246.689087 43.84082 246.154587 44.16153 246.154587 44.589111 C 246.154587 45.016724 245.780426 45.497772 245.299377 45.658112 C 244.070038 46.13916 241.344101 46.032257 241.344101 45.551208 Z"/>
        <path id="path52" fill="#005bc3" stroke="none" d="M 249.896072 40.740753 C 249.896072 40.366577 250.804718 39.778656 253.263397 38.602753 C 253.477219 38.49585 253.637558 39.030334 253.637558 39.778656 C 253.637558 41.007996 253.423767 41.168335 251.766815 41.168335 C 250.751266 41.168335 249.896072 40.954529 249.896072 40.740753 Z"/>
        <path id="path53" fill="#005bc3" stroke="none" d="M 255.882446 37.854462 C 256.042786 37.480286 256.89801 36.892365 257.806641 36.518188 C 259.463593 35.823364 259.517029 35.876801 259.517029 37.159607 C 259.517029 38.33551 259.303223 38.49585 257.592834 38.49585 C 256.363495 38.49585 255.775543 38.282043 255.882446 37.854462 Z"/>
        <path id="path54" fill="#005bc3" stroke="none" d="M 260.158447 36.250946 C 260.318787 35.876801 261.173981 35.288849 262.082611 34.914703 C 263.739563 34.219849 263.79303 34.273315 263.79303 35.556122 C 263.79303 36.731995 263.579224 36.892365 261.868835 36.892365 C 260.639496 36.892365 260.051544 36.678558 260.158447 36.250946 Z"/>
        <path id="path55" fill="#005bc3" stroke="none" d="M 266.465515 34.059509 C 266.465515 33.685364 267.694855 32.990509 269.138 32.50946 C 271.810486 31.654266 271.810486 31.654266 271.810486 32.883606 C 271.810486 33.685364 271.43634 34.219849 270.634583 34.433655 C 268.550049 34.96817 266.465515 34.8078 266.465515 34.059509 Z"/>
        <path id="path56" fill="#005bc3" stroke="none" d="M 272.344971 32.081879 C 272.344971 31.654266 278.812408 28.340393 279.614166 28.340393 C 279.721039 28.340393 279.827942 28.928345 279.827942 29.676636 C 279.827942 30.852539 279.614166 31.012878 277.957214 31.012878 C 276.674408 31.012878 276.086456 31.280121 276.086456 31.814636 C 276.086456 32.349121 275.498505 32.616364 274.215729 32.616364 C 273.200195 32.616364 272.344971 32.402557 272.344971 32.081879 Z"/>
    </g>
    <g id="g3">
        <path id="path57" fill="#006ccc" stroke="none" d="M 328.360352 382.338379 C 326.596527 381.910797 327.291382 380.574554 329.269012 380.574554 C 330.765594 380.574554 331.139771 380.788361 331.139771 381.643555 C 331.139771 382.712524 330.391449 382.872894 328.360352 382.338379 Z"/>
        <path id="path58" fill="#006ccc" stroke="none" d="M 341.829712 381.643555 C 341.829712 380.788361 342.203888 380.574554 343.70047 380.574554 C 345.83847 380.574554 346.319519 381.857361 344.395294 382.391846 C 342.364227 382.926361 341.829712 382.765991 341.829712 381.643555 Z"/>
        <path id="path59" fill="#006ccc" stroke="none" d="M 311.790924 380.734894 C 310.0271 380.307312 310.721924 378.971069 312.699585 378.971069 C 314.196167 378.971069 314.570313 379.184875 314.570313 380.040039 C 314.570313 381.109039 313.822021 381.269409 311.790924 380.734894 Z"/>
        <path id="path60" fill="#006ccc" stroke="none" d="M 307.514954 380.200378 C 305.751099 379.772797 306.445953 378.436554 308.423584 378.436554 C 309.920197 378.436554 310.294342 378.650391 310.294342 379.505554 C 310.294342 380.574554 309.546051 380.734894 307.514954 380.200378 Z"/>
        <path id="path61" fill="#006ccc" stroke="none" d="M 301.635468 379.131409 C 299.871643 378.703796 300.566467 377.367554 302.544128 377.367554 C 304.04071 377.367554 304.414856 377.58136 304.414856 378.436554 C 304.414856 379.505554 303.666565 379.665894 301.635468 379.131409 Z"/>
        <path id="path62" fill="#006ccc" stroke="none" d="M 380.848083 374.695068 C 380.848083 373.839905 381.222229 373.626068 382.718811 373.626068 C 384.856812 373.626068 385.33786 374.908875 383.413666 375.44339 C 381.382568 375.977875 380.848083 375.817505 380.848083 374.695068 Z"/>
        <path id="path63" fill="#006ccc" stroke="none" d="M 389.93454 371.701904 C 389.93454 370.579437 390.201782 370.419067 391.805298 370.419067 C 392.981171 370.419067 393.676025 370.68634 393.676025 371.113953 C 393.676025 371.541504 392.820831 372.076019 391.805298 372.396729 C 390.041443 372.98468 389.93454 372.931244 389.93454 371.701904 Z"/>
        <path id="path64" fill="#006ccc" stroke="none" d="M 394.21051 370.205261 C 394.21051 368.815613 395.119171 368.281097 397.470947 368.281097 C 400.143433 368.281097 399.288269 369.563904 395.60022 370.953583 C 394.37088 371.434631 394.21051 371.327759 394.21051 370.205261 Z"/>
        <path id="path65" fill="#006ccc" stroke="none" d="M 400.089996 367.47937 C 400.089996 366.303467 400.303802 366.143127 402.014191 366.143127 C 404.365997 366.143127 404.259094 367.105194 401.800415 368.120758 C 400.143433 368.815613 400.089996 368.762146 400.089996 367.47937 Z"/>
        <path id="path66" fill="#006ccc" stroke="none" d="M 265.022369 366.944855 C 262.72403 365.982758 262.777466 365.074097 265.129272 365.074097 C 266.786224 365.074097 267 365.234436 267 366.410339 C 267 367.158661 266.946564 367.746582 266.893097 367.746582 C 266.786224 367.693176 265.931 367.372437 265.022369 366.944855 Z"/>
        <path id="path67" fill="#006ccc" stroke="none" d="M 260.479126 364.646515 C 258.501495 363.470612 258.608368 362.936096 260.853271 362.936096 C 262.510223 362.936096 262.72403 363.096466 262.72403 364.272369 C 262.72403 365.822418 262.40332 365.875854 260.479126 364.646515 Z"/>
        <path id="path68" fill="#006ccc" stroke="none" d="M 407.572968 363.737854 C 407.572968 362.668884 407.84021 362.401611 408.90921 362.401611 C 409.710968 362.401611 410.245453 362.080933 410.245453 361.65332 C 410.245453 361.225708 410.619629 360.74469 411.100647 360.58432 C 412.330017 360.103271 415.055939 360.210205 415.055939 360.691223 C 415.055939 361.065369 408.481628 365.074097 407.84021 365.074097 C 407.679871 365.074097 407.572968 364.486176 407.572968 363.737854 Z"/>
        <path id="path69" fill="#006ccc" stroke="none" d="M 254.59964 361.439514 C 252.622009 360.263611 252.728897 359.729126 254.973801 359.729126 C 256.630737 359.729126 256.844543 359.889465 256.844543 361.065369 C 256.844543 362.615417 256.523834 362.668884 254.59964 361.439514 Z"/>
        <path id="path70" fill="#006ccc" stroke="none" d="M 227.447159 342.625183 C 225.576416 341.075134 225.576416 341.075134 227.607498 341.021698 C 229.478241 341.021698 229.585144 341.128601 229.585144 342.625183 C 229.585144 343.533844 229.531693 344.228699 229.424805 344.228699 C 229.371353 344.228699 228.462692 343.533844 227.447159 342.625183 Z"/>
        <path id="path71" fill="#006ccc" stroke="none" d="M 441.246338 338.830261 C 441.246338 336.371582 443.117096 334.447388 445.308502 334.71463 C 446.805145 334.874969 446.805145 334.874969 444.025726 337.814697 C 441.299774 340.754456 441.299774 340.754456 441.246338 338.830261 Z"/>
        <path id="path72" fill="#006ccc" stroke="none" d="M 217.558945 333.752563 C 215.955444 332.202484 215.955444 332.202484 217.452042 332.042145 C 219.376236 331.828308 219.536591 331.988678 219.322784 333.805969 C 219.16243 335.249146 219.16243 335.249146 217.558945 333.752563 Z"/>
        <path id="path73" fill="#006ccc" stroke="none" d="M 449.263824 330.224854 C 449.263824 328.567902 449.424164 328.193756 450.332825 328.193756 C 451.134552 328.193756 451.401794 327.81958 451.401794 326.857483 C 451.401794 326.002319 451.722504 325.52124 452.203552 325.52124 C 452.631134 325.52124 453.00531 325.040192 453.00531 324.452271 C 453.00531 323.597076 453.379456 323.38327 454.662231 323.38327 C 456.265717 323.38327 456.265717 323.38327 454.608795 325.68161 C 453.753601 326.91095 452.150116 328.888611 451.134552 330.064514 C 449.317261 332.202484 449.317261 332.202484 449.263824 330.224854 Z"/>
        <path id="path74" fill="#006ccc" stroke="none" d="M 207.563828 323.38327 C 206.06723 321.512512 206.06723 321.512512 207.45694 321.352173 C 209.220764 321.138367 209.381134 321.298706 209.167313 323.436707 C 209.006973 325.254028 209.006973 325.254028 207.563828 323.38327 Z"/>
        <path id="path75" fill="#006ccc" stroke="none" d="M 309.118439 310.715637 C 308.583954 310.608765 308.156342 310.127747 308.156342 309.700134 C 308.156342 309.112183 309.652924 308.951843 316.708313 308.951843 C 323.656799 308.951843 325.260284 309.112183 325.260284 309.700134 C 325.260284 310.074249 324.7258 310.555298 324.084381 310.769135 C 322.694702 311.14325 310.508148 311.089813 309.118439 310.715637 Z"/>
        <path id="path76" fill="#006ccc" stroke="none" d="M 286.669525 310.181152 C 286.13504 310.074249 285.707428 309.593231 285.707428 309.165649 C 285.707428 308.577667 286.509186 308.417328 288.914429 308.417328 C 291.747253 308.417328 292.121399 308.524231 292.121399 309.486328 C 292.121399 310.394958 291.80072 310.555298 289.876526 310.501892 C 288.593719 310.448425 287.150574 310.341492 286.669525 310.181152 Z"/>
        <path id="path77" fill="#006ccc" stroke="none" d="M 345.571198 309.486328 C 345.571198 308.577667 345.945374 308.417328 348.243683 308.417328 C 350.167877 308.417328 350.916199 308.631134 350.916199 309.165649 C 350.916199 309.967377 349.312683 310.555298 347.06781 310.555298 C 345.945374 310.555298 345.571198 310.288086 345.571198 309.486328 Z"/>
        <path id="path78" fill="#006ccc" stroke="none" d="M 463.695251 308.68457 C 463.695251 307.027649 463.855591 306.813843 465.031494 306.813843 C 466.63501 306.813843 466.63501 306.974182 465.459106 309.005249 C 464.229767 311.036377 463.695251 310.98291 463.695251 308.68457 Z"/>
        <path id="path79" fill="#006ccc" stroke="none" d="M 272.505341 309.646667 C 272.131195 309.539764 271.810486 309.058716 271.810486 308.631134 C 271.810486 308.096619 272.558777 307.882813 274.482971 307.882813 C 276.781311 307.882813 277.155457 308.043152 277.155457 308.951843 C 277.155457 309.860474 276.834778 310.020813 275.177826 309.967377 C 274.055389 309.967377 272.826019 309.807007 272.505341 309.646667 Z"/>
        <path id="path80" fill="#006ccc" stroke="none" d="M 353.588684 308.951843 C 353.588684 308.043152 353.96283 307.882813 356.261169 307.882813 C 358.185333 307.882813 358.933655 308.096619 358.933655 308.631134 C 358.933655 309.432861 357.33017 310.020813 355.085266 310.020813 C 353.96283 310.020813 353.588684 309.753571 353.588684 308.951843 Z"/>
        <path id="path81" fill="#006ccc" stroke="none" d="M 360.53714 308.417328 C 360.53714 307.508667 360.911316 307.348328 362.67514 307.348328 C 365.080383 307.348328 365.721802 308.577667 363.637238 309.165649 C 361.392334 309.753571 360.53714 309.539764 360.53714 308.417328 Z"/>
        <path id="path82" fill="#006ccc" stroke="none" d="M 365.882141 307.882813 C 365.882141 306.974182 366.256287 306.813843 368.020111 306.813843 C 370.425354 306.813843 371.066772 308.043152 368.982208 308.631134 C 366.737305 309.219055 365.882141 309.005249 365.882141 307.882813 Z"/>
        <path id="path83" fill="#006ccc" stroke="none" d="M 370.692627 307.455231 C 370.692627 306.653503 371.497559 306.410278 375.396179 305.851746 C 388.494629 303.974548 403.486725 299.137909 414.468018 296.177307 C 419.644623 294.781738 420.785217 294.14624 420.785217 295.322144 C 420.785217 296.28421 419.225037 296.979065 409.924774 300.079163 C 401.640045 302.858521 392.019104 305.103424 380.153229 307.027649 C 370.104675 308.68457 370.692627 308.631134 370.692627 307.455231 Z"/>
        <path id="path84" fill="#006ccc" stroke="none" d="M 467.971252 301.201599 C 467.971252 299.544678 468.131592 299.330872 469.307495 299.330872 C 470.91098 299.330872 470.91098 299.491211 469.735077 301.522278 C 468.505737 303.553406 467.971252 303.499939 467.971252 301.201599 Z"/>
        <path id="path85" fill="#006ccc" stroke="none" d="M 188.001205 296.44458 C 187.09256 294.841064 186.290817 293.397949 186.290817 293.237579 C 186.290817 293.077209 186.878769 292.91687 187.62706 292.91687 C 188.696045 292.91687 188.963303 293.184143 188.963303 294.253113 C 188.963303 295.108337 189.283997 295.589355 189.765045 295.589355 C 190.299545 295.589355 190.566788 296.177307 190.566788 297.460114 C 190.566788 298.475647 190.406448 299.330872 190.139206 299.330872 C 189.925385 299.330872 188.963303 298.048065 188.001205 296.44458 Z"/>
        <path id="path86" fill="#006ccc" stroke="none" d="M 470.109222 296.925598 C 470.109222 295.268677 470.269592 295.054871 471.498932 295.054871 C 472.247223 295.054871 472.781738 295.21521 472.674835 295.482483 C 470.804077 299.384308 470.109222 299.758453 470.109222 296.925598 Z"/>
        <path id="path87" fill="#006ccc" stroke="none" d="M 182.282074 285.861511 C 179.930283 281.051025 179.876831 280.890686 180.999283 280.730347 C 182.388977 280.516541 183.083817 281.425171 183.083817 283.456268 C 183.083817 284.311462 183.351074 284.899414 183.778671 284.899414 C 184.206268 284.899414 184.79422 285.487366 185.114914 286.235657 C 185.86322 287.892609 185.970108 290.77887 185.275269 290.77887 C 185.008026 290.77887 183.671768 288.533997 182.282074 285.861511 Z"/>
        <path id="path88" fill="#006ccc" stroke="none" d="M 288.914429 285.647705 C 272.238068 284.525269 267.855194 284.20459 261.655029 283.509705 C 254.653091 282.761414 249.521912 281.906219 241.50444 280.302734 C 239.366455 279.875122 237.495712 279.554443 237.388824 279.554443 C 237.228455 279.554443 236.426712 278.538879 235.624969 277.30954 C 234.823227 276.026733 233.968033 274.904297 233.807678 274.743958 C 231.669693 273.140442 223.331512 259.564209 219.322784 251.226044 C 216.543396 245.400009 216.008896 243.956879 216.596848 243.582733 C 216.810654 243.47583 219.429688 243.903412 222.369431 244.598267 C 233.005936 247.110397 250.697815 249.729446 265.129272 250.958786 C 270.420776 251.386383 277.155457 252.027786 280.095215 252.295044 C 288.540253 253.150238 321.091217 253.524368 334.079498 252.882996 C 371.013306 251.119141 392.500122 248.179398 410.245453 242.567169 C 413.024872 241.658539 416.445618 240.375732 417.835327 239.680878 C 419.225037 238.986053 420.507843 238.398102 420.668182 238.398102 C 420.828522 238.398102 420.935425 245.560364 420.935425 254.379578 C 420.935425 259.229614 420.879822 262.685669 420.787903 265.133148 C 420.698639 267.507935 420.714661 268.925934 419.887268 269.753357 C 418.791565 270.84906 417.664825 271.622498 415.483551 272.499054 C 399.87619 278.699219 376.465179 283.242462 350.007538 285.166656 C 339.852081 285.861511 297.840546 286.18219 288.914429 285.647705 Z"/>
        <path id="path89" fill="#006ccc" stroke="none" d="M 171.85936 260.900452 C 171.004166 259.24353 171.217972 258.1745 172.39386 258.1745 C 173.249069 258.1745 173.46286 258.548676 173.46286 260.045258 C 173.46286 262.129791 172.714569 262.503967 171.85936 260.900452 Z"/>
        <path id="path90" fill="#006ccc" stroke="none" d="M 165.49884 237.329102 C 164.750534 233.747955 164.750534 233.587616 165.926437 233.587616 C 166.888535 233.587616 167.583374 235.67215 167.583374 238.825684 C 167.583374 241.17749 166.086792 240.055023 165.49884 237.329102 Z"/>
        <path id="path91" fill="#006ccc" stroke="none" d="M 286.776428 231.9841 C 268.870758 230.915131 252.782349 229.044373 239.206116 226.585693 C 224.133255 223.806305 208.205231 219.476868 208.205231 218.194061 C 208.205231 217.926819 207.83107 215.681915 207.403488 213.223236 C 206.334488 206.809265 205.532745 197.883148 205.532745 191.41571 C 205.532745 185.91037 205.532745 185.91037 207.510391 186.284546 C 208.632813 186.498322 212.320862 187.460449 215.741653 188.422516 C 238.618164 195.050293 281.003845 199.914246 314.837585 199.914246 C 337.87442 199.914246 375.609985 196.707245 388.86554 193.71405 C 390.789734 193.286469 394.263947 192.538177 396.615753 192.110565 C 402.121094 191.095032 406.985046 189.598419 413.345551 187.032837 C 421.630249 183.665497 420.935425 182.54306 420.935425 199.059021 C 420.935425 215.361237 421.149231 214.559479 415.323181 217.819916 C 405.595337 223.27179 382.077423 228.509888 358.666412 230.380615 C 354.550781 230.701324 349.152344 231.235809 346.640198 231.503082 C 340.814148 232.197906 295.595642 232.572052 286.776428 231.9841 Z"/>
        <path id="path92" fill="#006ccc" stroke="none" d="M 164.162598 228.670227 C 163.628098 226.63913 163.788437 226.104645 164.910889 226.104645 C 165.766098 226.104645 165.979889 226.47879 165.979889 227.975372 C 165.979889 230.113373 164.697098 230.594421 164.162598 228.670227 Z"/>
        <path id="path93" fill="#006ccc" stroke="none" d="M 163.628098 223.859741 C 163.093597 221.828644 163.253952 221.294159 164.376389 221.294159 C 165.231598 221.294159 165.445389 221.668304 165.445389 223.164886 C 165.445389 225.302887 164.162598 225.783936 163.628098 223.859741 Z"/>
        <path id="path94" fill="#006ccc" stroke="none" d="M 163.093597 219.049255 C 162.559097 217.018158 162.719452 216.483673 163.841888 216.483673 C 164.697098 216.483673 164.910889 216.857819 164.910889 218.354401 C 164.910889 220.492401 163.628098 220.97345 163.093597 219.049255 Z"/>
        <path id="path95" fill="#006ccc" stroke="none" d="M 162.559097 208.893799 C 161.971146 206.648926 162.184952 205.793701 163.307404 205.793701 C 164.216049 205.793701 164.376389 206.167877 164.376389 207.931702 C 164.376389 210.336945 163.147049 210.978363 162.559097 208.893799 Z"/>
        <path id="path96" fill="#006ccc" stroke="none" d="M 162.238403 194.996857 C 162.238403 192.912323 162.879791 191.362274 163.628098 191.362274 C 164.162598 191.362274 164.376389 192.057098 164.376389 193.767517 C 164.376389 195.798584 164.216049 196.17276 163.307404 196.17276 C 162.559097 196.17276 162.238403 195.798584 162.238403 194.996857 Z"/>
        <path id="path97" fill="#006ccc" stroke="none" d="M 162.772903 180.565399 C 162.772903 178.480865 163.414291 176.930817 164.162598 176.930817 C 164.697098 176.930817 164.910889 177.625671 164.910889 179.33606 C 164.910889 181.367157 164.750534 181.741302 163.841888 181.741302 C 163.093597 181.741302 162.772903 181.367157 162.772903 180.565399 Z"/>
        <path id="path98" fill="#006ccc" stroke="none" d="M 164.055695 168.539185 C 164.804001 164.156311 165.017792 163.568359 165.766098 163.568359 C 166.621277 163.568359 166.674744 164.370117 166.19368 168.058167 C 165.926437 170.035797 165.605743 170.516846 164.804001 170.516846 C 163.841888 170.516846 163.788437 170.249603 164.055695 168.539185 Z"/>
        <path id="path99" fill="#006ccc" stroke="none" d="M 165.445389 160.895874 C 165.445389 158.918243 166.72818 155.016418 167.369583 155.016418 C 168.171326 155.016418 168.278229 156.245758 167.79718 159.452728 C 167.529922 160.895874 167.209229 161.430389 166.460938 161.430389 C 165.872986 161.430389 165.445389 161.216583 165.445389 160.895874 Z"/>
        <path id="path100" fill="#006ccc" stroke="none" d="M 172.39386 134.919281 C 172.39386 133.796844 173.355957 132.03299 173.99736 132.03299 C 174.318054 132.03299 174.53186 132.888184 174.53186 133.903748 C 174.53186 135.40033 174.318054 135.774475 173.46286 135.774475 C 172.874908 135.774475 172.39386 135.40033 172.39386 134.919281 Z"/>
        <path id="path101" fill="#006ccc" stroke="none" d="M 182.549332 110.866882 C 182.549332 110.225464 184.366608 107.446075 184.79422 107.446075 C 185.008026 107.446075 185.221817 108.3013 185.221817 109.316833 C 185.221817 110.973785 185.061478 111.187561 183.885574 111.187561 C 183.137283 111.187561 182.549332 111.027222 182.549332 110.866882 Z"/>
        <path id="path102" fill="#006ccc" stroke="none" d="M 198.049759 86.066162 C 199.706711 83.714386 200.187759 83.660919 200.187759 85.745483 C 200.187759 87.509308 200.080856 87.669647 198.530807 87.669647 C 196.927322 87.669647 196.927322 87.669647 198.049759 86.066162 Z"/>
        <path id="path103" fill="#006ccc" stroke="none" d="M 212.481216 68.962219 C 214.138153 66.610443 214.619202 66.556976 214.619202 68.641541 C 214.619202 70.405365 214.512299 70.565735 212.96225 70.565735 C 211.358765 70.565735 211.358765 70.565735 212.481216 68.962219 Z"/>
        <path id="path104" fill="#006ccc" stroke="none" d="M 225.041916 57.203278 C 225.202255 56.936035 226.057465 56.187714 226.912659 55.599792 C 228.516144 54.477325 228.516144 54.477325 228.516144 56.080841 C 228.516144 57.630859 228.355804 57.737762 226.591949 57.737762 C 225.522964 57.737762 224.828125 57.523987 225.041916 57.203278 Z"/>
        <path id="path105" fill="#006ccc" stroke="none" d="M 231.990387 51.858307 C 232.150726 51.591034 233.005936 50.842743 233.86113 50.254791 C 235.46463 49.132355 235.46463 49.132355 235.46463 50.73584 C 235.46463 52.285889 235.304276 52.392792 233.540436 52.392792 C 232.471436 52.392792 231.776596 52.178986 231.990387 51.858307 Z"/>
        <path id="path106" fill="#006ccc" stroke="none" d="M 239.740616 46.620209 C 239.740616 46.246063 249.949524 40.099335 250.644363 40.099335 C 250.804718 40.099335 250.965073 40.687286 250.965073 41.382141 C 250.965073 42.664917 250.109863 43.306335 248.23912 43.306335 C 247.70462 43.306335 247.223587 43.680481 247.223587 44.108063 C 247.223587 44.642578 246.635635 44.909821 245.352844 44.909821 C 243.856247 44.909821 243.482101 45.123627 243.482101 45.978821 C 243.482101 46.834015 243.107941 47.047821 241.611359 47.047821 C 240.59581 47.047821 239.740616 46.887451 239.740616 46.620209 Z"/>
        <path id="path107" fill="#006ccc" stroke="none" d="M 257.485962 37.319946 C 257.646301 36.945801 258.501495 36.357849 259.410126 35.983704 C 261.067078 35.288849 261.120514 35.342316 261.120514 36.625092 C 261.120514 37.800995 260.906738 37.961334 259.19632 37.961334 C 257.96698 37.961334 257.379028 37.747559 257.485962 37.319946 Z"/>
        <path id="path108" fill="#006ccc" stroke="none" d="M 261.655029 35.769897 C 261.655029 35.181946 264.594757 33.792267 267.053467 33.311218 C 268.336243 33.043976 268.603485 33.204315 268.603485 34.059509 C 268.603485 34.8078 268.015533 35.288849 266.518951 35.716461 C 263.953369 36.518188 261.655029 36.518188 261.655029 35.769897 Z"/>
        <path id="path109" fill="#006ccc" stroke="none" d="M 269.779388 33.043976 C 269.939758 32.66983 270.794952 32.081879 271.703583 31.707733 C 273.360535 31.012878 273.413971 31.066315 273.413971 32.349121 C 273.413971 33.525024 273.200195 33.685364 271.489777 33.685364 C 270.260437 33.685364 269.672485 33.471558 269.779388 33.043976 Z"/>
        <path id="path110" fill="#006ccc" stroke="none" d="M 277.155457 30.157684 C 277.155457 29.516266 278.972748 28.393829 279.988312 28.340393 C 280.522797 28.340393 280.896942 28.714539 280.896942 29.409393 C 280.896942 30.264587 280.522797 30.478363 279.026215 30.478363 C 278.010681 30.478363 277.155457 30.318024 277.155457 30.157684 Z"/>
    </g>
    <g id="g4">
        <path id="path111" fill="#007ddb" stroke="none" d="M 316.60141 381.269409 C 314.837585 380.841797 315.53241 379.505554 317.510071 379.505554 C 319.006653 379.505554 319.380798 379.71936 319.380798 380.574554 C 319.380798 381.643555 318.632507 381.803894 316.60141 381.269409 Z"/>
        <path id="path112" fill="#007ddb" stroke="none" d="M 354.657684 380.734894 C 354.657684 379.933136 355.352509 379.612457 358.826752 379.077972 C 364.118286 378.276215 364.813141 378.276215 364.813141 379.184875 C 364.813141 379.933136 362.782043 380.521118 356.955994 381.376282 C 354.924927 381.696991 354.657684 381.590118 354.657684 380.734894 Z"/>
        <path id="path113" fill="#007ddb" stroke="none" d="M 366.416626 378.436554 C 366.416626 377.58136 366.790771 377.367554 368.287384 377.367554 C 370.425354 377.367554 370.906433 378.650391 368.982208 379.184875 C 366.951141 379.71936 366.416626 379.55899 366.416626 378.436554 Z"/>
        <path id="path114" fill="#007ddb" stroke="none" d="M 293.618011 376.993408 C 291.693817 376.51239 290.517914 375.870972 290.517914 375.44339 C 290.517914 374.534729 292.228302 374.481262 295.809448 375.336487 C 297.840546 375.817505 298.5354 376.19165 298.5354 376.939972 C 298.5354 378.062408 297.787079 378.115875 293.618011 376.993408 Z"/>
        <path id="path115" fill="#007ddb" stroke="none" d="M 373.365112 376.833069 C 373.365112 375.977875 373.739258 375.764069 375.23584 375.764069 C 377.37384 375.764069 377.854889 377.046875 375.930695 377.58136 C 373.899597 378.115875 373.365112 377.955505 373.365112 376.833069 Z"/>
        <path id="path116" fill="#007ddb" stroke="none" d="M 285.600525 374.855408 C 283.8367 374.427826 284.531525 373.091583 286.509186 373.091583 C 288.005768 373.091583 288.379913 373.305389 288.379913 374.160583 C 288.379913 375.229553 287.631622 375.389923 285.600525 374.855408 Z"/>
        <path id="path117" fill="#007ddb" stroke="none" d="M 391.538025 371.007019 C 391.538025 369.884583 392.553589 369.350098 394.798462 369.350098 C 395.76059 369.350098 396.348511 369.082825 396.348511 368.601776 C 396.348511 367.693176 397.524414 367.212097 399.608948 367.212097 C 400.571075 367.212097 401.158997 366.944855 401.158997 366.517273 C 401.158997 365.768951 403.296997 364.539612 404.63324 364.539612 C 405.060822 364.539612 405.434967 364.325806 405.434967 364.005127 C 405.434967 363.737854 406.290161 363.470612 407.305725 363.470612 C 408.802307 363.470612 409.176453 363.256805 409.176453 362.401611 C 409.176453 361.546448 409.550629 361.332642 411.047211 361.332642 C 412.062775 361.332642 412.917938 361.546448 412.917938 361.760223 C 412.917938 362.775757 394.317444 372.022583 392.23288 372.022583 C 391.858734 372.022583 391.538025 371.541504 391.538025 371.007019 Z"/>
        <path id="path118" fill="#007ddb" stroke="none" d="M 274.643311 370.68634 C 272.344971 369.724243 272.398438 368.815613 274.750214 368.815613 C 276.407166 368.815613 276.620972 368.975952 276.620972 370.151855 C 276.620972 370.900146 276.567505 371.488098 276.514069 371.488098 C 276.407166 371.434631 275.551971 371.113953 274.643311 370.68634 Z"/>
        <path id="path119" fill="#007ddb" stroke="none" d="M 261.815369 365.287903 C 259.517029 364.165466 259.570496 363.470612 261.922272 363.470612 C 263.579224 363.470612 263.79303 363.630981 263.79303 364.806854 C 263.79303 365.555176 263.739563 366.143127 263.686096 366.143127 C 263.579224 366.143127 262.72403 365.715515 261.815369 365.287903 Z"/>
        <path id="path120" fill="#007ddb" stroke="none" d="M 413.986938 360.049805 C 413.986938 359.194641 414.307648 358.660156 414.788696 358.660156 C 415.216278 358.660156 415.590454 358.44632 415.590454 358.125641 C 415.590454 357.858398 416.338745 357.591125 417.193939 357.591125 C 418.423279 357.591125 418.797424 357.377319 418.797424 356.522156 C 418.797424 355.934204 419.1716 355.453125 419.599182 355.453125 C 420.026764 355.453125 420.400909 355.239319 420.400909 354.91864 C 420.400909 354.651398 421.256104 354.384155 422.325104 354.384155 C 424.783813 354.384155 424.409668 354.865234 419.545746 358.125641 C 414.361115 361.65332 413.986938 361.81369 413.986938 360.049805 Z"/>
        <path id="path121" fill="#007ddb" stroke="none" d="M 249.254669 358.232544 C 247.277039 357.056641 247.383926 356.522156 249.628815 356.522156 C 251.285767 356.522156 251.499557 356.682495 251.499557 357.858398 C 251.499557 359.408447 251.178864 359.461884 249.254669 358.232544 Z"/>
        <path id="path122" fill="#007ddb" stroke="none" d="M 425.211395 352.834106 C 425.211395 351.284058 425.371735 351.177185 427.13559 351.177185 C 429.220154 351.177185 429.166718 351.658203 426.814911 353.315155 C 425.211395 354.437592 425.211395 354.437592 425.211395 352.834106 Z"/>
        <path id="path123" fill="#007ddb" stroke="none" d="M 240.275101 352.246155 C 238.404358 350.696106 238.404358 350.696106 240.435455 350.64267 C 242.306198 350.64267 242.413101 350.749573 242.413101 352.246155 C 242.413101 353.154816 242.35965 353.84967 242.252762 353.84967 C 242.199295 353.84967 241.290649 353.154816 240.275101 352.246155 Z"/>
        <path id="path124" fill="#007ddb" stroke="none" d="M 430.556396 348.558105 C 430.556396 347.008087 430.716736 346.901184 432.48056 346.901184 C 434.565125 346.901184 434.511688 347.382233 432.159882 349.039185 C 430.556396 350.161621 430.556396 350.161621 430.556396 348.558105 Z"/>
        <path id="path125" fill="#007ddb" stroke="none" d="M 231.723145 345.832184 C 229.852402 344.282104 229.852402 344.282104 231.883484 344.228699 C 233.754227 344.228699 233.86113 344.335602 233.86113 345.832184 C 233.86113 346.740845 233.807678 347.435669 233.70079 347.435669 C 233.647339 347.435669 232.738678 346.740845 231.723145 345.832184 Z"/>
        <path id="path126" fill="#007ddb" stroke="none" d="M 440.711853 339.204407 C 440.711853 337.440552 440.818756 337.280212 442.368774 337.280212 C 443.97226 337.280212 443.97226 337.280212 442.849854 338.883728 C 441.192902 341.235535 440.711853 341.28894 440.711853 339.204407 Z"/>
        <path id="path127" fill="#007ddb" stroke="none" d="M 217.077896 333.218048 C 215.527863 331.667969 215.527863 331.667969 217.024445 331.507629 C 217.826187 331.400757 218.574478 331.454163 218.734848 331.561096 C 218.841736 331.721436 218.895187 332.469727 218.788284 333.271484 C 218.627945 334.768066 218.627945 334.768066 217.077896 333.218048 Z"/>
        <path id="path128" fill="#007ddb" stroke="none" d="M 208.846634 324.666077 C 206.708633 322.31427 204.570648 319.855591 204.143036 319.214172 C 203.341293 318.091736 203.394745 318.038269 204.944794 318.038269 C 206.494827 318.038269 206.60173 318.198608 206.60173 319.909027 C 206.60173 321.565979 206.76207 321.779785 207.937973 321.779785 C 208.793182 321.779785 210.022522 322.474609 211.198425 323.650513 C 212.695007 325.147095 213.069168 325.895416 212.908798 327.231659 C 212.748459 328.942078 212.748459 328.942078 208.846634 324.666077 Z"/>
        <path id="path129" fill="#007ddb" stroke="none" d="M 455.677795 321.565979 C 455.677795 319.802124 455.784698 319.641785 457.334717 319.641785 C 458.938202 319.641785 458.938202 319.641785 457.815796 321.24527 C 456.158844 323.597076 455.677795 323.650513 455.677795 321.565979 Z"/>
        <path id="path130" fill="#007ddb" stroke="none" d="M 201.149841 315.365784 C 199.653259 313.495056 199.653259 313.495056 201.042953 313.334717 C 202.806793 313.120911 202.967148 313.28125 202.753342 315.41925 C 202.593002 317.236542 202.593002 317.236542 201.149841 315.365784 Z"/>
        <path id="path131" fill="#007ddb" stroke="none" d="M 459.953766 315.098572 C 459.953766 313.815735 460.221039 313.227814 460.755524 313.227814 C 461.236572 313.227814 461.557281 312.746765 461.557281 311.891541 C 461.557281 310.822571 461.824524 310.555298 462.893524 310.555298 C 463.641815 310.555298 464.229767 310.715637 464.229767 310.876007 C 464.229767 311.517395 460.755524 316.969299 460.381378 316.969299 C 460.114105 316.969299 459.953766 316.114105 459.953766 315.098572 Z"/>
        <path id="path132" fill="#007ddb" stroke="none" d="M 197.942856 311.089813 C 196.446274 309.219055 196.446274 309.219055 197.835968 309.058716 C 199.599808 308.84491 199.760162 309.005249 199.546356 311.14325 C 199.386017 312.960571 199.386017 312.960571 197.942856 311.089813 Z"/>
        <path id="path133" fill="#007ddb" stroke="none" d="M 290.464478 310.341492 C 290.357574 310.234619 286.29538 310.020813 281.484894 309.967377 C 272.772583 309.807007 272.772583 309.807007 266.572418 305.637939 C 263.205078 303.3396 258.715302 300.079163 256.630737 298.422211 C 249.521912 292.703094 235.411179 278.37854 236.15947 277.630249 C 236.319824 277.46991 238.778519 277.844055 241.718262 278.432007 C 262.296417 282.65451 276.514069 283.830414 310.294342 284.20459 C 330.658691 284.418365 338.088226 284.311462 347.709198 283.616638 C 375.23584 281.58551 398.379608 277.095734 414.254211 270.735229 C 417.514618 269.398987 420.347473 268.329956 420.561279 268.329956 C 420.775085 268.329956 420.935425 274.583618 420.935425 282.173462 C 420.935425 285.900513 421.001709 288.655334 420.976593 290.796509 C 420.960541 292.17392 420.970154 294.875824 420.788971 295.865723 C 420.788971 295.865723 420.738739 296.028748 420.473602 296.239868 C 420.310059 296.369751 419.902771 296.578186 419.721588 296.653564 C 419.341034 296.811249 418.884003 296.978516 418.436646 297.164001 C 415.829376 298.243713 412.992798 299.190308 406.847656 300.976563 C 402.058563 302.368408 399.201111 303.119385 394.745026 304.087891 C 371.013306 309.272522 355.673218 310.555298 317.456604 310.555298 C 302.757904 310.555298 290.571381 310.448425 290.464478 310.341492 Z"/>
        <path id="path134" fill="#007ddb" stroke="none" d="M 464.229767 307.61557 C 464.229767 306.118988 464.443573 305.744812 465.298767 305.744812 C 466.153931 305.744812 466.367737 305.370667 466.367737 303.874084 C 466.367737 302.217163 466.528107 302.003357 467.70401 302.003357 C 468.452301 302.003357 469.040253 302.11026 469.040253 302.270599 C 469.040253 302.911987 465.031494 309.486328 464.657349 309.486328 C 464.443573 309.486328 464.229767 308.631134 464.229767 307.61557 Z"/>
        <path id="path135" fill="#007ddb" stroke="none" d="M 186.39772 293.504822 C 184.954559 290.93924 184.954559 290.77887 186.504608 290.77887 C 187.894302 290.77887 188.428802 291.634094 188.428802 294.039337 C 188.428802 296.177307 187.787399 295.963531 186.39772 293.504822 Z"/>
        <path id="path136" fill="#007ddb" stroke="none" d="M 182.014832 285.059753 C 181.587234 284.20459 181.159622 283.402832 181.052734 283.189026 C 180.945831 282.921753 181.480331 282.761414 182.228622 282.761414 C 183.457977 282.761414 183.618317 282.97522 183.618317 284.632172 C 183.618317 286.877075 182.976929 287.037415 182.014832 285.059753 Z"/>
        <path id="path137" fill="#007ddb" stroke="none" d="M 166.300583 240.963684 C 165.766098 238.932587 165.926437 238.398102 167.048889 238.398102 C 167.904083 238.398102 168.117874 238.772247 168.117874 240.268829 C 168.117874 242.40683 166.835083 242.887878 166.300583 240.963684 Z"/>
        <path id="path138" fill="#007ddb" stroke="none" d="M 164.697098 232.411713 C 164.162598 230.380615 164.322937 229.84613 165.445389 229.84613 C 166.300583 229.84613 166.514389 230.220276 166.514389 231.716858 C 166.514389 233.854858 165.231598 234.335907 164.697098 232.411713 Z"/>
        <path id="path139" fill="#007ddb" stroke="none" d="M 164.162598 228.135712 C 163.628098 226.104645 163.788437 225.570129 164.910889 225.570129 C 165.766098 225.570129 165.979889 225.944305 165.979889 227.440887 C 165.979889 229.578888 164.697098 230.059906 164.162598 228.135712 Z"/>
        <path id="path140" fill="#007ddb" stroke="none" d="M 163.628098 223.325226 C 163.093597 221.294159 163.253952 220.759644 164.376389 220.759644 C 165.231598 220.759644 165.445389 221.13382 165.445389 222.630402 C 165.445389 224.768402 164.162598 225.249451 163.628098 223.325226 Z"/>
        <path id="path141" fill="#007ddb" stroke="none" d="M 163.093597 218.514771 C 162.559097 216.483673 162.719452 215.949188 163.841888 215.949188 C 164.697098 215.949188 164.910889 216.323334 164.910889 217.819916 C 164.910889 219.957916 163.628098 220.438965 163.093597 218.514771 Z"/>
        <path id="path142" fill="#007ddb" stroke="none" d="M 418.850861 215.093964 C 419.545746 214.185333 420.24057 213.490479 420.347473 213.650848 C 420.507843 213.757721 419.919861 214.506012 419.064667 215.30777 C 417.568085 216.750916 417.568085 216.750916 418.850861 215.093964 Z"/>
        <path id="path143" fill="#007ddb" stroke="none" d="M 162.559097 207.824799 C 161.917694 205.419556 162.184952 204.190216 163.307404 204.190216 C 164.216049 204.190216 164.376389 204.564362 164.376389 206.595459 C 164.376389 209.214508 163.147049 210.016235 162.559097 207.824799 Z"/>
        <path id="path144" fill="#007ddb" stroke="none" d="M 286.509186 200.662537 C 256.577301 199.005585 227.554062 194.408905 206.227585 187.834564 C 205.853439 187.727692 205.532745 187.300079 205.532745 186.819031 C 205.532745 185.589691 207.563828 185.803497 214.779541 187.888031 C 231.669693 192.698517 258.822205 196.867584 283.8367 198.417633 C 297.893982 199.272827 333.865692 199.272827 345.571198 198.417633 C 358.185333 197.455536 378.549744 195.210663 385.124054 194.03476 C 400.357239 191.308807 404.152161 190.34671 414.361115 186.337982 C 419.919861 184.146545 419.444702 183.212769 419.444702 184.549011 C 419.444702 185.19043 419.812988 186.712128 417.087036 187.834564 C 408.748871 191.095032 404.419434 192.484711 399.288269 193.500275 C 396.348511 194.03476 392.393219 194.889954 390.469025 195.317535 C 384.696472 196.600342 368.982208 198.578003 353.321442 199.914246 C 333.331177 201.624634 309.225342 201.891876 286.509186 200.662537 L 286.509186 200.662537 Z"/>
        <path id="path145" fill="#007ddb" stroke="none" d="M 162.238403 196.333099 C 162.238403 194.515808 162.879791 192.965759 163.628098 192.965759 C 164.162598 192.965759 164.376389 193.660614 164.376389 195.10376 C 164.376389 196.867584 164.216049 197.24176 163.307404 197.24176 C 162.666 197.24176 162.238403 196.867584 162.238403 196.333099 Z"/>
        <path id="path146" fill="#007ddb" stroke="none" d="M 162.772903 182.436157 C 162.772903 180.137817 163.360855 178.534302 164.162598 178.534302 C 164.697098 178.534302 164.910889 179.282623 164.910889 181.206818 C 164.910889 183.505127 164.750534 183.879303 163.841888 183.879303 C 163.040146 183.879303 162.772903 183.505127 162.772903 182.436157 Z"/>
        <path id="path147" fill="#007ddb" stroke="none" d="M 163.307404 173.616943 C 163.307404 172.013428 164.002243 170.516846 164.697098 170.516846 C 165.178146 170.516846 165.445389 171.158264 165.445389 172.387604 C 165.445389 173.884186 165.231598 174.258331 164.376389 174.258331 C 163.788437 174.258331 163.307404 173.937622 163.307404 173.616943 Z"/>
        <path id="path148" fill="#007ddb" stroke="none" d="M 166.514389 155.444 C 166.514389 153.840515 167.209229 152.343903 167.904083 152.343903 C 168.385132 152.343903 168.652374 152.985321 168.652374 154.214661 C 168.652374 155.711243 168.438583 156.085388 167.583374 156.085388 C 166.995438 156.085388 166.514389 155.764709 166.514389 155.444 Z"/>
        <path id="path149" fill="#007ddb" stroke="none" d="M 190.032303 98.03891 C 190.032303 97.397522 191.849594 94.618134 192.277191 94.618134 C 192.490997 94.618134 192.704788 95.473328 192.704788 96.488892 C 192.704788 98.145813 192.544449 98.359619 191.368546 98.359619 C 190.620255 98.359619 190.032303 98.19928 190.032303 98.03891 Z"/>
        <path id="path150" fill="#007ddb" stroke="none" d="M 203.929245 78.583191 C 205.586197 76.231415 206.06723 76.177948 206.06723 78.262482 C 206.06723 80.026337 205.960327 80.186676 204.410294 80.186676 C 202.806793 80.186676 202.806793 80.186676 203.929245 78.583191 Z"/>
        <path id="path151" fill="#007ddb" stroke="none" d="M 213.015717 68.427734 C 214.672653 66.075928 215.153702 66.022491 215.153702 68.107025 C 215.153702 69.87088 215.046799 70.031219 213.49675 70.031219 C 211.893265 70.031219 211.893265 70.031219 213.015717 68.427734 Z"/>
        <path id="path152" fill="#007ddb" stroke="none" d="M 217.558945 63.617249 C 217.719284 63.350006 218.574478 62.601715 219.429688 62.013763 C 221.033173 60.891327 221.033173 60.891327 221.033173 62.494812 C 221.033173 64.044861 220.872833 64.151764 219.108978 64.151764 C 218.039993 64.151764 217.345154 63.937958 217.558945 63.617249 Z"/>
        <path id="path153" fill="#007ddb" stroke="none" d="M 226.912659 55.867035 C 226.912659 55.760132 228.890305 54.156647 231.348984 52.339355 C 233.754227 50.522064 236.052582 48.758209 236.426712 48.490967 C 236.907776 48.116821 237.068115 48.384064 237.068115 49.66687 C 237.068115 50.949646 236.854324 51.323792 235.999115 51.323792 C 235.411179 51.323792 234.93013 51.697937 234.93013 52.125549 C 234.93013 52.553131 234.449081 52.927307 233.86113 52.927307 C 233.273178 52.927307 232.79213 53.301453 232.79213 53.729034 C 232.79213 54.156647 232.311096 54.530792 231.723145 54.530792 C 231.135193 54.530792 230.654144 54.904938 230.654144 55.33252 C 230.654144 55.867035 230.066193 56.134277 228.783401 56.134277 C 227.767853 56.134277 226.912659 56.027374 226.912659 55.867035 Z"/>
        <path id="path154" fill="#007ddb" stroke="none" d="M 238.137115 47.689209 C 238.137115 47.261627 240.916504 45.444305 241.557892 45.444305 C 241.718262 45.444305 241.878601 46.032257 241.878601 46.780579 C 241.878601 47.956451 241.66481 48.116821 240.007858 48.116821 C 238.99231 48.116821 238.137115 47.903015 238.137115 47.689209 Z"/>
        <path id="path155" fill="#007ddb" stroke="none" d="M 248.292572 41.809723 C 248.292572 41.382141 251.071976 39.56485 251.713364 39.56485 C 251.873718 39.56485 252.034058 40.152802 252.034058 40.901093 C 252.034058 42.076996 251.820267 42.237335 250.163315 42.237335 C 249.147781 42.237335 248.292572 42.023529 248.292572 41.809723 Z"/>
        <path id="path156" fill="#007ddb" stroke="none" d="M 259.089447 36.785461 C 259.249786 36.411316 260.10498 35.823364 261.013611 35.449219 C 262.670563 34.754364 262.72403 34.8078 262.72403 36.090607 C 262.72403 37.26651 262.510223 37.426849 260.799835 37.426849 C 259.570496 37.426849 258.982544 37.213043 259.089447 36.785461 Z"/>
        <path id="path157" fill="#007ddb" stroke="none" d="M 275.12439 30.905975 C 275.284729 30.53183 276.139923 29.943878 277.048553 29.569733 C 278.705505 28.874878 278.758972 28.928345 278.758972 30.211121 C 278.758972 31.387024 278.545166 31.547363 276.834778 31.547363 C 275.605438 31.547363 275.017487 31.333588 275.12439 30.905975 Z"/>
    </g>
    <g id="g5">
        <path id="path158" fill="#00b2d5" stroke="none" d="M 327.398285 382.391846 C 319.220459 381.643555 305.323517 379.8797 302.811371 379.238312 C 292.655914 376.779633 282.393555 373.732971 276.03302 371.167419 C 271.970825 369.563904 268.496582 368.281097 268.282806 368.281097 C 268.122467 368.281097 265.503418 367.051758 262.510223 365.555176 C 245.459747 356.949738 230.012741 345.778748 216.436493 332.202484 C 198.584259 314.403687 186.504608 296.498047 176.776749 273.674957 C 165.605743 247.377655 161.436661 221.828644 162.772903 188.155273 C 163.574646 168.058167 165.819534 155.123291 171.431763 138.019379 C 176.562943 122.251678 181.96138 110.706512 190.620255 96.863037 C 198.42392 84.462677 211.572556 68.908783 221.30043 60.463715 C 235.999115 47.742676 249.575363 39.511383 264.113708 34.433655 C 268.710419 32.83017 274.215729 30.799072 276.353729 29.890442 C 279.560699 28.554199 280.843506 28.340393 283.622894 28.447296 C 286.616089 28.607635 287.043671 28.714539 287.043671 29.676636 C 287.043671 30.478363 285.386719 31.60083 279.560699 34.700897 C 260.639496 44.642578 248.773621 53.408356 233.32663 68.908783 C 211.465668 90.769745 199.332565 109.904785 190.513336 136.415863 C 184.366608 154.802612 182.014832 168.913361 182.014832 187.460449 C 182.014832 208.679993 183.992462 222.897644 189.123642 239.199829 C 203.501648 284.685608 234.39563 319.481445 277.422729 338.776794 C 315.478973 355.827301 363.744141 355.934204 404.900482 339.044067 C 427.937347 329.583435 450.546631 312.960571 468.238495 292.489288 C 472.300659 287.732239 473.048981 287.090881 473.690369 287.732239 C 474.331787 288.373657 474.331787 288.961609 473.583466 291.794434 C 473.102417 293.665161 472.086884 296.498047 471.231659 298.154968 C 468.185059 304.515503 460.755524 316.915863 456.53299 322.795349 C 451.455231 329.957581 440.391174 341.930359 433.335785 347.970154 C 417.354279 361.492981 395.27951 372.610535 373.632355 377.955505 C 361.338898 381.002136 352.840363 382.124603 340.867645 382.391846 C 334.774353 382.498718 328.734528 382.498718 327.398285 382.391846 Z"/>
    </g>
    <g id="g6">
        <path id="path159" fill="#00abef" stroke="none" d="M 295.862885 200.662537 C 294.526642 200.555634 288.43338 200.234924 282.233185 199.914246 C 258.768738 198.684906 232.311096 194.729584 213.710556 189.598419 C 205.532745 187.353546 205.532745 187.353546 205.532745 182.810303 C 205.532745 177.625671 206.174149 171.478943 207.510391 164.209778 C 208.36557 159.185486 208.36557 159.185486 210.289764 159.452728 C 211.358765 159.613098 213.924362 160.307922 215.955444 161.056244 C 219.857285 162.49939 225.469513 163.942505 229.585144 164.63736 C 230.921387 164.851166 233.807678 165.385651 235.999115 165.866699 C 241.237198 166.935699 253.851349 168.806458 268.069 170.516846 C 287.417847 172.868622 347.97644 172.547943 365.882141 170.035797 C 388.758636 166.828827 403.884918 163.40802 412.757599 159.506195 C 414.414551 158.757904 416.926697 158.009583 418.369843 157.849243 C 420.935425 157.528534 420.935425 157.528534 420.828522 171.853088 C 420.780426 176.733063 420.74353 181.080658 420.620056 183.818909 C 420.547363 185.44165 420.815186 186.49942 420.020905 186.76825 C 418.386414 187.320923 417.189667 187.897125 414.24939 188.932953 C 413.203369 189.301758 411.937134 189.788177 410.352356 190.391602 C 399.822754 194.346924 378.496277 197.509003 350.916199 199.700439 C 341.776276 200.44873 301.475128 201.143585 295.862885 200.662537 Z"/>
    </g>
    <g id="g7">
        <path id="path160" fill="#00b2eb" stroke="none" d="M 280.095215 173.135895 C 271.276001 172.708282 266.786224 172.227234 253.9048 170.463379 C 240.649261 168.646118 237.923325 168.271942 234.39563 167.470215 C 232.471436 167.096069 230.066193 166.615021 229.050644 166.454651 C 223.652222 165.599457 211.626007 162.17868 208.312134 160.575195 C 207.670731 160.254486 215.153702 136.202087 217.077896 132.514038 C 217.986542 130.750214 218.681396 130.64328 222.422882 131.765747 C 223.866013 132.193329 227.821304 132.995087 231.188644 133.583038 C 234.555969 134.17099 238.564713 134.919281 240.007858 135.186523 C 249.682281 137.003815 267.855194 138.821106 290.517914 140.103912 C 301.795837 140.798767 343.379791 140.371155 351.717926 139.569427 C 354.657684 139.248718 360.323334 138.76767 364.278625 138.44696 C 385.979248 136.683136 408.267822 132.353699 417.942261 128.077698 C 420.935425 126.741455 420.935425 126.741455 420.828522 143.097107 C 420.668182 159.452728 420.668182 159.452728 419.118103 159.613098 C 418.262939 159.720001 415.697357 160.521729 413.50589 161.376923 C 402.441803 165.759827 390.843201 168.325409 367.485626 171.639282 C 354.336975 173.51004 304.521759 174.365234 280.095215 173.135895 Z"/>
    </g>
    <g id="g8">
        <path id="path161" fill="#00e1ed" stroke="none" d="M 289.983429 119.365387 C 268.656952 118.349854 237.602615 114.127319 229.852402 111.187561 C 228.623062 110.706512 228.516144 110.546173 229.104095 109.477173 C 232.311096 103.277008 247.009781 88.311066 255.454849 82.591919 C 259.517029 79.812531 260.211884 79.545288 265.396515 78.583191 C 268.496582 78.048706 274.96402 77.246948 279.827942 76.7659 C 284.691895 76.284851 289.609253 75.803802 290.785156 75.643463 C 296.450836 74.895172 317.242828 74.46756 328.734528 74.895172 C 360.750977 75.964142 384.215393 79.117706 401.158997 84.56958 C 414.788696 88.952454 420.935425 93.44223 420.935425 98.894104 C 420.935425 103.54425 414.147278 107.659882 400.196899 111.50827 C 388.063782 114.822174 364.545898 118.029144 343.486664 119.205048 C 334.66745 119.686096 298.962982 119.792999 289.983429 119.365387 Z"/>
    </g>
</svg>
